<svg xmlns="http://www.w3.org/2000/svg" xmlns:xlink="http://www.w3.org/1999/xlink" width="500" zoomAndPan="magnify" viewBox="0 0 375 374.999991" height="500" preserveAspectRatio="xMidYMid meet" version="1.0"><defs><g/><clipPath id="d5d7d5ee13"><path d="M 59.207031 153.714844 L 128.207031 153.714844 L 128.207031 222.714844 L 59.207031 222.714844 Z M 59.207031 153.714844 " clip-rule="nonzero"/></clipPath><clipPath id="fa8ed511c9"><path d="M 116.949219 169.636719 L 114.9375 169.636719 L 114.9375 156.367188 C 114.9375 156.015625 114.871094 155.675781 114.738281 155.351562 C 114.601562 155.027344 114.410156 154.738281 114.160156 154.492188 C 113.914062 154.242188 113.625 154.050781 113.300781 153.914062 C 112.976562 153.78125 112.636719 153.714844 112.285156 153.714844 L 75.132812 153.714844 C 74.777344 153.714844 74.441406 153.78125 74.117188 153.914062 C 73.789062 154.050781 73.503906 154.242188 73.253906 154.492188 C 73.003906 154.738281 72.8125 155.027344 72.679688 155.351562 C 72.542969 155.675781 72.476562 156.015625 72.476562 156.367188 L 72.476562 169.636719 L 72.269531 169.636719 C 71.410156 169.636719 70.5625 169.722656 69.722656 169.890625 C 68.878906 170.058594 68.0625 170.304688 67.273438 170.636719 C 66.480469 170.964844 65.726562 171.367188 65.015625 171.84375 C 64.304688 172.320312 63.644531 172.859375 63.039062 173.464844 C 62.433594 174.074219 61.890625 174.730469 61.414062 175.445312 C 60.9375 176.15625 60.535156 176.910156 60.207031 177.699219 C 59.878906 178.492188 59.628906 179.308594 59.460938 180.148438 C 59.292969 180.992188 59.210938 181.839844 59.207031 182.695312 L 59.207031 209.652344 C 59.207031 210.511719 59.292969 211.359375 59.460938 212.199219 C 59.628906 213.042969 59.878906 213.859375 60.207031 214.648438 C 60.535156 215.441406 60.9375 216.195312 61.414062 216.90625 C 61.890625 217.621094 62.429688 218.277344 63.035156 218.886719 C 63.644531 219.492188 64.300781 220.03125 65.015625 220.507812 C 65.726562 220.984375 66.480469 221.386719 67.273438 221.714844 C 68.0625 222.042969 68.878906 222.292969 69.722656 222.460938 C 70.5625 222.628906 71.410156 222.710938 72.269531 222.714844 L 115.148438 222.714844 C 116.003906 222.710938 116.855469 222.628906 117.695312 222.460938 C 118.535156 222.292969 119.351562 222.042969 120.144531 221.714844 C 120.9375 221.386719 121.6875 220.984375 122.402344 220.507812 C 123.113281 220.03125 123.773438 219.492188 124.378906 218.882812 C 124.984375 218.277344 125.527344 217.621094 126.003906 216.90625 C 126.480469 216.195312 126.882812 215.441406 127.210938 214.648438 C 127.539062 213.859375 127.785156 213.042969 127.953125 212.199219 C 128.121094 211.359375 128.207031 210.511719 128.207031 209.652344 L 128.207031 180.894531 C 128.207031 180.15625 128.132812 179.421875 127.988281 178.699219 C 127.84375 177.972656 127.628906 177.269531 127.347656 176.589844 C 127.0625 175.90625 126.71875 175.257812 126.308594 174.644531 C 125.894531 174.027344 125.429688 173.460938 124.90625 172.9375 C 124.382812 172.414062 123.816406 171.949219 123.203125 171.539062 C 122.585938 171.128906 121.9375 170.78125 121.257812 170.496094 C 120.574219 170.214844 119.871094 170 119.144531 169.855469 C 118.421875 169.710938 117.6875 169.636719 116.949219 169.636719 Z M 116.949219 174.945312 C 117.339844 174.945312 117.726562 174.984375 118.109375 175.058594 C 118.492188 175.136719 118.867188 175.25 119.226562 175.398438 C 119.585938 175.550781 119.929688 175.734375 120.253906 175.949219 C 120.578125 176.167969 120.878906 176.414062 121.15625 176.691406 C 121.429688 176.964844 121.679688 177.265625 121.894531 177.589844 C 122.113281 177.914062 122.296875 178.257812 122.445312 178.617188 C 122.59375 178.980469 122.707031 179.351562 122.785156 179.734375 C 122.859375 180.117188 122.898438 180.503906 122.898438 180.894531 L 122.898438 181.265625 L 114.9375 185.246094 L 114.9375 174.945312 Z M 109.632812 159.019531 L 109.632812 187.902344 L 93.707031 195.863281 L 77.785156 187.902344 L 77.785156 159.019531 Z M 72.269531 174.945312 L 72.476562 174.945312 L 72.476562 185.246094 L 64.652344 181.335938 C 64.734375 180.890625 64.851562 180.457031 65.003906 180.035156 C 65.160156 179.609375 65.351562 179.203125 65.574219 178.8125 C 65.800781 178.425781 66.058594 178.054688 66.347656 177.710938 C 66.640625 177.367188 66.957031 177.046875 67.300781 176.757812 C 67.648438 176.46875 68.015625 176.210938 68.40625 175.984375 C 68.796875 175.761719 69.203125 175.570312 69.625 175.414062 C 70.046875 175.261719 70.480469 175.144531 70.925781 175.066406 C 71.371094 174.984375 71.816406 174.945312 72.269531 174.945312 Z M 115.148438 217.40625 L 72.269531 217.40625 C 71.757812 217.40625 71.253906 217.355469 70.757812 217.253906 C 70.257812 217.15625 69.773438 217.007812 69.304688 216.8125 C 68.832031 216.617188 68.386719 216.378906 67.964844 216.097656 C 67.539062 215.8125 67.148438 215.492188 66.789062 215.132812 C 66.429688 214.773438 66.109375 214.382812 65.824219 213.957031 C 65.542969 213.535156 65.304688 213.089844 65.109375 212.617188 C 64.914062 212.148438 64.765625 211.664062 64.667969 211.164062 C 64.566406 210.667969 64.515625 210.164062 64.515625 209.652344 L 64.515625 187.199219 L 92.523438 201.21875 C 92.894531 201.402344 93.289062 201.496094 93.707031 201.496094 C 94.125 201.496094 94.519531 201.402344 94.894531 201.21875 L 122.898438 187.199219 L 122.898438 209.652344 C 122.898438 210.164062 122.847656 210.667969 122.75 211.164062 C 122.648438 211.664062 122.503906 212.148438 122.308594 212.617188 C 122.113281 213.089844 121.875 213.535156 121.589844 213.957031 C 121.308594 214.382812 120.988281 214.773438 120.625 215.132812 C 120.265625 215.492188 119.875 215.8125 119.453125 216.097656 C 119.03125 216.378906 118.582031 216.617188 118.113281 216.8125 C 117.644531 217.007812 117.160156 217.15625 116.660156 217.253906 C 116.160156 217.355469 115.65625 217.40625 115.148438 217.40625 Z M 115.148438 217.40625 " clip-rule="nonzero"/></clipPath><linearGradient x1="3.487702" gradientTransform="matrix(2.653846, 0, 0, 2.653846, 56.554225, 151.059876)" y1="28.99017" x2="26.317078" gradientUnits="userSpaceOnUse" y2="0.453656" id="963f30834f"><stop stop-opacity="1" stop-color="rgb(99.238586%, 79.618835%, 6.719971%)" offset="0"/><stop stop-opacity="1" stop-color="rgb(99.221802%, 79.443359%, 6.542969%)" offset="0.0078125"/><stop stop-opacity="1" stop-color="rgb(99.201965%, 79.196167%, 6.283569%)" offset="0.015625"/><stop stop-opacity="1" stop-color="rgb(99.198914%, 79.034424%, 6.079102%)" offset="0.03125"/><stop stop-opacity="1" stop-color="rgb(99.198914%, 78.851318%, 5.836487%)" offset="0.046875"/><stop stop-opacity="1" stop-color="rgb(99.198914%, 78.669739%, 5.592346%)" offset="0.0625"/><stop stop-opacity="1" stop-color="rgb(99.198914%, 78.486633%, 5.349731%)" offset="0.078125"/><stop stop-opacity="1" stop-color="rgb(99.198914%, 78.305054%, 5.105591%)" offset="0.09375"/><stop stop-opacity="1" stop-color="rgb(99.198914%, 78.121948%, 4.862976%)" offset="0.109375"/><stop stop-opacity="1" stop-color="rgb(99.177551%, 77.897644%, 4.827881%)" offset="0.117188"/><stop stop-opacity="1" stop-color="rgb(99.124146%, 77.586365%, 5.082703%)" offset="0.125"/><stop stop-opacity="1" stop-color="rgb(99.058533%, 77.227783%, 5.415344%)" offset="0.132813"/><stop stop-opacity="1" stop-color="rgb(98.994446%, 76.870728%, 5.747986%)" offset="0.140625"/><stop stop-opacity="1" stop-color="rgb(98.928833%, 76.512146%, 6.082153%)" offset="0.148437"/><stop stop-opacity="1" stop-color="rgb(98.864746%, 76.153564%, 6.414795%)" offset="0.15625"/><stop stop-opacity="1" stop-color="rgb(98.799133%, 75.796509%, 6.747437%)" offset="0.164062"/><stop stop-opacity="1" stop-color="rgb(98.735046%, 75.437927%, 7.081604%)" offset="0.171875"/><stop stop-opacity="1" stop-color="rgb(98.669434%, 75.079346%, 7.414246%)" offset="0.179687"/><stop stop-opacity="1" stop-color="rgb(98.603821%, 74.72229%, 7.746887%)" offset="0.1875"/><stop stop-opacity="1" stop-color="rgb(98.539734%, 74.363708%, 8.079529%)" offset="0.195312"/><stop stop-opacity="1" stop-color="rgb(98.474121%, 74.005127%, 8.413696%)" offset="0.203125"/><stop stop-opacity="1" stop-color="rgb(98.410034%, 73.648071%, 8.746338%)" offset="0.210937"/><stop stop-opacity="1" stop-color="rgb(98.344421%, 73.28949%, 9.078979%)" offset="0.21875"/><stop stop-opacity="1" stop-color="rgb(98.280334%, 72.930908%, 9.413147%)" offset="0.226562"/><stop stop-opacity="1" stop-color="rgb(98.214722%, 72.573853%, 9.745789%)" offset="0.234375"/><stop stop-opacity="1" stop-color="rgb(98.149109%, 72.215271%, 10.07843%)" offset="0.242188"/><stop stop-opacity="1" stop-color="rgb(98.085022%, 71.856689%, 10.412598%)" offset="0.25"/><stop stop-opacity="1" stop-color="rgb(98.019409%, 71.499634%, 10.745239%)" offset="0.257812"/><stop stop-opacity="1" stop-color="rgb(97.955322%, 71.141052%, 11.077881%)" offset="0.265625"/><stop stop-opacity="1" stop-color="rgb(97.889709%, 70.783997%, 11.410522%)" offset="0.273438"/><stop stop-opacity="1" stop-color="rgb(97.825623%, 70.425415%, 11.74469%)" offset="0.28125"/><stop stop-opacity="1" stop-color="rgb(97.76001%, 70.066833%, 12.077332%)" offset="0.289062"/><stop stop-opacity="1" stop-color="rgb(97.694397%, 69.709778%, 12.409973%)" offset="0.296875"/><stop stop-opacity="1" stop-color="rgb(97.63031%, 69.351196%, 12.744141%)" offset="0.304688"/><stop stop-opacity="1" stop-color="rgb(97.564697%, 68.992615%, 13.076782%)" offset="0.3125"/><stop stop-opacity="1" stop-color="rgb(97.50061%, 68.635559%, 13.409424%)" offset="0.320313"/><stop stop-opacity="1" stop-color="rgb(97.434998%, 68.276978%, 13.742065%)" offset="0.328125"/><stop stop-opacity="1" stop-color="rgb(97.370911%, 67.918396%, 14.076233%)" offset="0.335938"/><stop stop-opacity="1" stop-color="rgb(97.305298%, 67.56134%, 14.408875%)" offset="0.34375"/><stop stop-opacity="1" stop-color="rgb(97.239685%, 67.202759%, 14.741516%)" offset="0.351563"/><stop stop-opacity="1" stop-color="rgb(97.175598%, 66.844177%, 15.075684%)" offset="0.359375"/><stop stop-opacity="1" stop-color="rgb(97.109985%, 66.487122%, 15.408325%)" offset="0.367187"/><stop stop-opacity="1" stop-color="rgb(97.045898%, 66.12854%, 15.740967%)" offset="0.375"/><stop stop-opacity="1" stop-color="rgb(96.980286%, 65.769958%, 16.073608%)" offset="0.382812"/><stop stop-opacity="1" stop-color="rgb(96.916199%, 65.412903%, 16.407776%)" offset="0.390625"/><stop stop-opacity="1" stop-color="rgb(96.850586%, 65.054321%, 16.740417%)" offset="0.398437"/><stop stop-opacity="1" stop-color="rgb(96.786499%, 64.69574%, 17.073059%)" offset="0.40625"/><stop stop-opacity="1" stop-color="rgb(96.720886%, 64.338684%, 17.407227%)" offset="0.414062"/><stop stop-opacity="1" stop-color="rgb(96.655273%, 63.980103%, 17.739868%)" offset="0.421875"/><stop stop-opacity="1" stop-color="rgb(96.591187%, 63.621521%, 18.07251%)" offset="0.429687"/><stop stop-opacity="1" stop-color="rgb(96.525574%, 63.264465%, 18.406677%)" offset="0.4375"/><stop stop-opacity="1" stop-color="rgb(96.461487%, 62.905884%, 18.739319%)" offset="0.444446"/><stop stop-opacity="1" stop-color="rgb(96.429443%, 62.727356%, 18.90564%)" offset="0.445312"/><stop stop-opacity="1" stop-color="rgb(96.395874%, 62.547302%, 19.07196%)" offset="0.453125"/><stop stop-opacity="1" stop-color="rgb(96.331787%, 62.190247%, 19.404602%)" offset="0.460937"/><stop stop-opacity="1" stop-color="rgb(96.266174%, 61.831665%, 19.73877%)" offset="0.46875"/><stop stop-opacity="1" stop-color="rgb(96.200562%, 61.473083%, 20.071411%)" offset="0.476562"/><stop stop-opacity="1" stop-color="rgb(96.136475%, 61.116028%, 20.404053%)" offset="0.484375"/><stop stop-opacity="1" stop-color="rgb(96.070862%, 60.757446%, 20.73822%)" offset="0.492187"/><stop stop-opacity="1" stop-color="rgb(96.006775%, 60.398865%, 21.070862%)" offset="0.5"/><stop stop-opacity="1" stop-color="rgb(95.941162%, 60.041809%, 21.403503%)" offset="0.507812"/><stop stop-opacity="1" stop-color="rgb(95.877075%, 59.683228%, 21.736145%)" offset="0.515625"/><stop stop-opacity="1" stop-color="rgb(95.811462%, 59.324646%, 22.070312%)" offset="0.523437"/><stop stop-opacity="1" stop-color="rgb(95.74585%, 58.96759%, 22.402954%)" offset="0.53125"/><stop stop-opacity="1" stop-color="rgb(95.681763%, 58.609009%, 22.735596%)" offset="0.539062"/><stop stop-opacity="1" stop-color="rgb(95.61615%, 58.250427%, 23.069763%)" offset="0.546875"/><stop stop-opacity="1" stop-color="rgb(95.552063%, 57.893372%, 23.402405%)" offset="0.554687"/><stop stop-opacity="1" stop-color="rgb(95.48645%, 57.53479%, 23.735046%)" offset="0.555554"/><stop stop-opacity="1" stop-color="rgb(95.454407%, 57.356262%, 23.901367%)" offset="0.5625"/><stop stop-opacity="1" stop-color="rgb(95.422363%, 57.176208%, 24.067688%)" offset="0.570312"/><stop stop-opacity="1" stop-color="rgb(95.35675%, 56.819153%, 24.401855%)" offset="0.578125"/><stop stop-opacity="1" stop-color="rgb(95.289612%, 56.428528%, 24.623108%)" offset="0.582031"/><stop stop-opacity="1" stop-color="rgb(95.256042%, 56.217957%, 24.67804%)" offset="0.585937"/><stop stop-opacity="1" stop-color="rgb(95.220947%, 55.986023%, 24.659729%)" offset="0.589844"/><stop stop-opacity="1" stop-color="rgb(95.185852%, 55.755615%, 24.642944%)" offset="0.59375"/><stop stop-opacity="1" stop-color="rgb(95.149231%, 55.523682%, 24.624634%)" offset="0.597656"/><stop stop-opacity="1" stop-color="rgb(95.114136%, 55.291748%, 24.606323%)" offset="0.601562"/><stop stop-opacity="1" stop-color="rgb(95.079041%, 55.059814%, 24.588013%)" offset="0.605469"/><stop stop-opacity="1" stop-color="rgb(95.043945%, 54.827881%, 24.571228%)" offset="0.609375"/><stop stop-opacity="1" stop-color="rgb(95.00885%, 54.595947%, 24.552917%)" offset="0.613281"/><stop stop-opacity="1" stop-color="rgb(94.973755%, 54.36554%, 24.536133%)" offset="0.617187"/><stop stop-opacity="1" stop-color="rgb(94.937134%, 54.133606%, 24.517822%)" offset="0.621094"/><stop stop-opacity="1" stop-color="rgb(94.902039%, 53.901672%, 24.501038%)" offset="0.625"/><stop stop-opacity="1" stop-color="rgb(94.866943%, 53.669739%, 24.482727%)" offset="0.628906"/><stop stop-opacity="1" stop-color="rgb(94.831848%, 53.439331%, 24.465942%)" offset="0.632812"/><stop stop-opacity="1" stop-color="rgb(94.795227%, 53.207397%, 24.447632%)" offset="0.636719"/><stop stop-opacity="1" stop-color="rgb(94.760132%, 52.975464%, 24.429321%)" offset="0.640625"/><stop stop-opacity="1" stop-color="rgb(94.725037%, 52.74353%, 24.411011%)" offset="0.644531"/><stop stop-opacity="1" stop-color="rgb(94.689941%, 52.511597%, 24.394226%)" offset="0.648437"/><stop stop-opacity="1" stop-color="rgb(94.65332%, 52.279663%, 24.375916%)" offset="0.652344"/><stop stop-opacity="1" stop-color="rgb(94.618225%, 52.049255%, 24.359131%)" offset="0.65625"/><stop stop-opacity="1" stop-color="rgb(94.58313%, 51.817322%, 24.34082%)" offset="0.660156"/><stop stop-opacity="1" stop-color="rgb(94.548035%, 51.585388%, 24.324036%)" offset="0.664062"/><stop stop-opacity="1" stop-color="rgb(94.512939%, 51.353455%, 24.305725%)" offset="0.667969"/><stop stop-opacity="1" stop-color="rgb(94.477844%, 51.123047%, 24.28894%)" offset="0.671875"/><stop stop-opacity="1" stop-color="rgb(94.441223%, 50.891113%, 24.27063%)" offset="0.675781"/><stop stop-opacity="1" stop-color="rgb(94.406128%, 50.65918%, 24.252319%)" offset="0.679687"/><stop stop-opacity="1" stop-color="rgb(94.371033%, 50.427246%, 24.234009%)" offset="0.683594"/><stop stop-opacity="1" stop-color="rgb(94.335938%, 50.195312%, 24.217224%)" offset="0.6875"/><stop stop-opacity="1" stop-color="rgb(94.299316%, 49.963379%, 24.198914%)" offset="0.691406"/><stop stop-opacity="1" stop-color="rgb(94.264221%, 49.732971%, 24.182129%)" offset="0.695312"/><stop stop-opacity="1" stop-color="rgb(94.229126%, 49.501038%, 24.163818%)" offset="0.699219"/><stop stop-opacity="1" stop-color="rgb(94.194031%, 49.269104%, 24.147034%)" offset="0.703125"/><stop stop-opacity="1" stop-color="rgb(94.158936%, 49.03717%, 24.128723%)" offset="0.707031"/><stop stop-opacity="1" stop-color="rgb(94.12384%, 48.806763%, 24.111938%)" offset="0.710938"/><stop stop-opacity="1" stop-color="rgb(94.087219%, 48.574829%, 24.093628%)" offset="0.714844"/><stop stop-opacity="1" stop-color="rgb(94.052124%, 48.342896%, 24.075317%)" offset="0.71875"/><stop stop-opacity="1" stop-color="rgb(94.017029%, 48.110962%, 24.057007%)" offset="0.722656"/><stop stop-opacity="1" stop-color="rgb(93.981934%, 47.879028%, 24.040222%)" offset="0.726562"/><stop stop-opacity="1" stop-color="rgb(93.945312%, 47.647095%, 24.021912%)" offset="0.730469"/><stop stop-opacity="1" stop-color="rgb(93.910217%, 47.416687%, 24.005127%)" offset="0.734375"/><stop stop-opacity="1" stop-color="rgb(93.875122%, 47.184753%, 23.986816%)" offset="0.738281"/><stop stop-opacity="1" stop-color="rgb(93.840027%, 46.95282%, 23.970032%)" offset="0.742188"/><stop stop-opacity="1" stop-color="rgb(93.804932%, 46.720886%, 23.951721%)" offset="0.746094"/><stop stop-opacity="1" stop-color="rgb(93.769836%, 46.490479%, 23.934937%)" offset="0.75"/><stop stop-opacity="1" stop-color="rgb(93.733215%, 46.258545%, 23.916626%)" offset="0.753906"/><stop stop-opacity="1" stop-color="rgb(93.69812%, 46.026611%, 23.898315%)" offset="0.757812"/><stop stop-opacity="1" stop-color="rgb(93.663025%, 45.794678%, 23.880005%)" offset="0.761719"/><stop stop-opacity="1" stop-color="rgb(93.62793%, 45.562744%, 23.86322%)" offset="0.765625"/><stop stop-opacity="1" stop-color="rgb(93.591309%, 45.330811%, 23.84491%)" offset="0.769531"/><stop stop-opacity="1" stop-color="rgb(93.556213%, 45.100403%, 23.828125%)" offset="0.773438"/><stop stop-opacity="1" stop-color="rgb(93.521118%, 44.868469%, 23.809814%)" offset="0.777344"/><stop stop-opacity="1" stop-color="rgb(93.486023%, 44.636536%, 23.79303%)" offset="0.78125"/><stop stop-opacity="1" stop-color="rgb(93.450928%, 44.404602%, 23.774719%)" offset="0.785156"/><stop stop-opacity="1" stop-color="rgb(93.415833%, 44.174194%, 23.756409%)" offset="0.789062"/><stop stop-opacity="1" stop-color="rgb(93.379211%, 43.942261%, 23.738098%)" offset="0.792969"/><stop stop-opacity="1" stop-color="rgb(93.344116%, 43.710327%, 23.721313%)" offset="0.796875"/><stop stop-opacity="1" stop-color="rgb(93.309021%, 43.478394%, 23.703003%)" offset="0.800781"/><stop stop-opacity="1" stop-color="rgb(93.273926%, 43.24646%, 23.686218%)" offset="0.804688"/><stop stop-opacity="1" stop-color="rgb(93.237305%, 43.014526%, 23.667908%)" offset="0.808594"/><stop stop-opacity="1" stop-color="rgb(93.202209%, 42.784119%, 23.651123%)" offset="0.8125"/><stop stop-opacity="1" stop-color="rgb(93.167114%, 42.552185%, 23.632812%)" offset="0.816406"/><stop stop-opacity="1" stop-color="rgb(93.132019%, 42.320251%, 23.616028%)" offset="0.820312"/><stop stop-opacity="1" stop-color="rgb(93.095398%, 42.088318%, 23.597717%)" offset="0.824219"/><stop stop-opacity="1" stop-color="rgb(93.060303%, 41.85791%, 23.579407%)" offset="0.828125"/><stop stop-opacity="1" stop-color="rgb(93.025208%, 41.625977%, 23.561096%)" offset="0.832031"/><stop stop-opacity="1" stop-color="rgb(92.990112%, 41.394043%, 23.544312%)" offset="0.835938"/><stop stop-opacity="1" stop-color="rgb(92.955017%, 41.162109%, 23.526001%)" offset="0.839844"/><stop stop-opacity="1" stop-color="rgb(92.919922%, 40.930176%, 23.509216%)" offset="0.84375"/><stop stop-opacity="1" stop-color="rgb(92.878723%, 40.524292%, 23.487854%)" offset="0.847656"/><stop stop-opacity="1" stop-color="rgb(92.837524%, 40.118408%, 23.466492%)" offset="0.851562"/><stop stop-opacity="1" stop-color="rgb(92.793274%, 39.642334%, 23.443604%)" offset="0.855469"/><stop stop-opacity="1" stop-color="rgb(92.750549%, 39.16626%, 23.420715%)" offset="0.859375"/><stop stop-opacity="1" stop-color="rgb(92.706299%, 38.690186%, 23.396301%)" offset="0.863281"/><stop stop-opacity="1" stop-color="rgb(92.663574%, 38.214111%, 23.373413%)" offset="0.867188"/><stop stop-opacity="1" stop-color="rgb(92.62085%, 37.738037%, 23.350525%)" offset="0.871094"/><stop stop-opacity="1" stop-color="rgb(92.578125%, 37.261963%, 23.327637%)" offset="0.875"/><stop stop-opacity="1" stop-color="rgb(92.533875%, 36.785889%, 23.304749%)" offset="0.878906"/><stop stop-opacity="1" stop-color="rgb(92.49115%, 36.309814%, 23.28186%)" offset="0.882812"/><stop stop-opacity="1" stop-color="rgb(92.446899%, 35.83374%, 23.258972%)" offset="0.886719"/><stop stop-opacity="1" stop-color="rgb(92.404175%, 35.357666%, 23.236084%)" offset="0.890625"/><stop stop-opacity="1" stop-color="rgb(92.36145%, 34.881592%, 23.21167%)" offset="0.894531"/><stop stop-opacity="1" stop-color="rgb(92.318726%, 34.405518%, 23.188782%)" offset="0.898438"/><stop stop-opacity="1" stop-color="rgb(92.274475%, 33.929443%, 23.165894%)" offset="0.902344"/><stop stop-opacity="1" stop-color="rgb(92.23175%, 33.453369%, 23.143005%)" offset="0.90625"/><stop stop-opacity="1" stop-color="rgb(92.1875%, 32.977295%, 23.120117%)" offset="0.910156"/><stop stop-opacity="1" stop-color="rgb(92.144775%, 32.502747%, 23.097229%)" offset="0.914062"/><stop stop-opacity="1" stop-color="rgb(92.100525%, 32.026672%, 23.074341%)" offset="0.917969"/><stop stop-opacity="1" stop-color="rgb(92.0578%, 31.550598%, 23.051453%)" offset="0.921875"/><stop stop-opacity="1" stop-color="rgb(92.015076%, 31.074524%, 23.027039%)" offset="0.925781"/><stop stop-opacity="1" stop-color="rgb(91.972351%, 30.59845%, 23.00415%)" offset="0.929688"/><stop stop-opacity="1" stop-color="rgb(91.928101%, 30.122375%, 22.981262%)" offset="0.933594"/><stop stop-opacity="1" stop-color="rgb(91.885376%, 29.646301%, 22.958374%)" offset="0.9375"/><stop stop-opacity="1" stop-color="rgb(91.841125%, 29.170227%, 22.935486%)" offset="0.941406"/><stop stop-opacity="1" stop-color="rgb(91.798401%, 28.694153%, 22.912598%)" offset="0.945312"/><stop stop-opacity="1" stop-color="rgb(91.755676%, 28.218079%, 22.889709%)" offset="0.949219"/><stop stop-opacity="1" stop-color="rgb(91.712952%, 27.742004%, 22.866821%)" offset="0.953125"/><stop stop-opacity="1" stop-color="rgb(91.668701%, 27.26593%, 22.842407%)" offset="0.957031"/><stop stop-opacity="1" stop-color="rgb(91.625977%, 26.789856%, 22.819519%)" offset="0.960938"/><stop stop-opacity="1" stop-color="rgb(91.581726%, 26.313782%, 22.796631%)" offset="0.964844"/><stop stop-opacity="1" stop-color="rgb(91.539001%, 25.837708%, 22.773743%)" offset="0.96875"/><stop stop-opacity="1" stop-color="rgb(91.494751%, 25.361633%, 22.750854%)" offset="0.972656"/><stop stop-opacity="1" stop-color="rgb(91.452026%, 24.885559%, 22.727966%)" offset="0.976563"/><stop stop-opacity="1" stop-color="rgb(91.424561%, 24.59259%, 22.712708%)" offset="0.980469"/><stop stop-opacity="1" stop-color="rgb(91.398621%, 24.299622%, 22.698975%)" offset="0.984375"/><stop stop-opacity="1" stop-color="rgb(91.398621%, 24.299622%, 22.698975%)" offset="1"/></linearGradient><clipPath id="05258de722"><path d="M 83.09375 164.328125 L 104.324219 164.328125 L 104.324219 169.636719 L 83.09375 169.636719 Z M 83.09375 164.328125 " clip-rule="nonzero"/></clipPath><linearGradient x1="11.951054" gradientTransform="matrix(2.653846, 0, 0, 2.653846, 56.554225, 151.059876)" y1="8.56085" x2="16.048644" gradientUnits="userSpaceOnUse" y2="3.4389" id="447d197e2d"><stop stop-opacity="1" stop-color="rgb(95.298767%, 56.498718%, 24.699402%)" offset="0"/><stop stop-opacity="1" stop-color="rgb(95.272827%, 56.332397%, 24.685669%)" offset="0.03125"/><stop stop-opacity="1" stop-color="rgb(95.222473%, 55.999756%, 24.661255%)" offset="0.0625"/><stop stop-opacity="1" stop-color="rgb(95.172119%, 55.667114%, 24.635315%)" offset="0.09375"/><stop stop-opacity="1" stop-color="rgb(95.120239%, 55.334473%, 24.609375%)" offset="0.125"/><stop stop-opacity="1" stop-color="rgb(95.069885%, 55.003357%, 24.584961%)" offset="0.15625"/><stop stop-opacity="1" stop-color="rgb(95.019531%, 54.670715%, 24.559021%)" offset="0.1875"/><stop stop-opacity="1" stop-color="rgb(94.967651%, 54.338074%, 24.533081%)" offset="0.21875"/><stop stop-opacity="1" stop-color="rgb(94.917297%, 54.005432%, 24.508667%)" offset="0.238094"/><stop stop-opacity="1" stop-color="rgb(94.892883%, 53.839111%, 24.49646%)" offset="0.25"/><stop stop-opacity="1" stop-color="rgb(94.866943%, 53.672791%, 24.482727%)" offset="0.28125"/><stop stop-opacity="1" stop-color="rgb(94.815063%, 53.340149%, 24.456787%)" offset="0.3125"/><stop stop-opacity="1" stop-color="rgb(94.764709%, 53.007507%, 24.432373%)" offset="0.34375"/><stop stop-opacity="1" stop-color="rgb(94.714355%, 52.674866%, 24.406433%)" offset="0.375"/><stop stop-opacity="1" stop-color="rgb(94.662476%, 52.342224%, 24.380493%)" offset="0.40625"/><stop stop-opacity="1" stop-color="rgb(94.612122%, 52.009583%, 24.356079%)" offset="0.4375"/><stop stop-opacity="1" stop-color="rgb(94.561768%, 51.676941%, 24.330139%)" offset="0.46875"/><stop stop-opacity="1" stop-color="rgb(94.511414%, 51.344299%, 24.304199%)" offset="0.5"/><stop stop-opacity="1" stop-color="rgb(94.459534%, 51.011658%, 24.279785%)" offset="0.53125"/><stop stop-opacity="1" stop-color="rgb(94.40918%, 50.679016%, 24.253845%)" offset="0.5625"/><stop stop-opacity="1" stop-color="rgb(94.358826%, 50.346375%, 24.227905%)" offset="0.59375"/><stop stop-opacity="1" stop-color="rgb(94.306946%, 50.013733%, 24.203491%)" offset="0.625"/><stop stop-opacity="1" stop-color="rgb(94.256592%, 49.681091%, 24.177551%)" offset="0.65625"/><stop stop-opacity="1" stop-color="rgb(94.206238%, 49.34845%, 24.151611%)" offset="0.6875"/><stop stop-opacity="1" stop-color="rgb(94.154358%, 49.015808%, 24.127197%)" offset="0.71875"/><stop stop-opacity="1" stop-color="rgb(94.104004%, 48.683167%, 24.101257%)" offset="0.75"/><stop stop-opacity="1" stop-color="rgb(94.05365%, 48.350525%, 24.075317%)" offset="0.761906"/><stop stop-opacity="1" stop-color="rgb(94.02771%, 48.184204%, 24.06311%)" offset="0.78125"/><stop stop-opacity="1" stop-color="rgb(94.00177%, 48.017883%, 24.050903%)" offset="0.8125"/><stop stop-opacity="1" stop-color="rgb(93.951416%, 47.685242%, 24.024963%)" offset="0.84375"/><stop stop-opacity="1" stop-color="rgb(93.901062%, 47.3526%, 23.999023%)" offset="0.875"/><stop stop-opacity="1" stop-color="rgb(93.849182%, 47.019958%, 23.974609%)" offset="0.90625"/><stop stop-opacity="1" stop-color="rgb(93.798828%, 46.687317%, 23.948669%)" offset="0.9375"/><stop stop-opacity="1" stop-color="rgb(93.748474%, 46.354675%, 23.922729%)" offset="0.96875"/><stop stop-opacity="1" stop-color="rgb(93.696594%, 46.022034%, 23.898315%)" offset="1"/></linearGradient><clipPath id="fa2330e52c"><path d="M 83.09375 174.945312 L 93.707031 174.945312 L 93.707031 180.253906 L 83.09375 180.253906 Z M 83.09375 174.945312 " clip-rule="nonzero"/></clipPath><linearGradient x1="10.732024" gradientTransform="matrix(2.653846, 0, 0, 2.653846, 56.554225, 151.059876)" y1="11.58562" x2="13.268625" gradientUnits="userSpaceOnUse" y2="8.414892" id="a14262cfe7"><stop stop-opacity="1" stop-color="rgb(96.009827%, 60.415649%, 21.055603%)" offset="0"/><stop stop-opacity="1" stop-color="rgb(95.980835%, 60.256958%, 21.203613%)" offset="0.0625"/><stop stop-opacity="1" stop-color="rgb(95.922852%, 59.938049%, 21.499634%)" offset="0.125"/><stop stop-opacity="1" stop-color="rgb(95.864868%, 59.620667%, 21.795654%)" offset="0.1875"/><stop stop-opacity="1" stop-color="rgb(95.806885%, 59.301758%, 22.091675%)" offset="0.25"/><stop stop-opacity="1" stop-color="rgb(95.750427%, 58.982849%, 22.387695%)" offset="0.3125"/><stop stop-opacity="1" stop-color="rgb(95.692444%, 58.665466%, 22.683716%)" offset="0.375"/><stop stop-opacity="1" stop-color="rgb(95.63446%, 58.346558%, 22.979736%)" offset="0.384614"/><stop stop-opacity="1" stop-color="rgb(95.605469%, 58.187866%, 23.127747%)" offset="0.4375"/><stop stop-opacity="1" stop-color="rgb(95.576477%, 58.029175%, 23.275757%)" offset="0.5"/><stop stop-opacity="1" stop-color="rgb(95.518494%, 57.710266%, 23.571777%)" offset="0.5625"/><stop stop-opacity="1" stop-color="rgb(95.46051%, 57.391357%, 23.867798%)" offset="0.615386"/><stop stop-opacity="1" stop-color="rgb(95.433044%, 57.232666%, 24.015808%)" offset="0.625"/><stop stop-opacity="1" stop-color="rgb(95.404053%, 57.073975%, 24.163818%)" offset="0.6875"/><stop stop-opacity="1" stop-color="rgb(95.346069%, 56.755066%, 24.459839%)" offset="0.75"/><stop stop-opacity="1" stop-color="rgb(95.28656%, 56.404114%, 24.642944%)" offset="0.8125"/><stop stop-opacity="1" stop-color="rgb(95.239258%, 56.109619%, 24.668884%)" offset="0.84375"/><stop stop-opacity="1" stop-color="rgb(95.207214%, 55.903625%, 24.653625%)" offset="0.875"/><stop stop-opacity="1" stop-color="rgb(95.176697%, 55.697632%, 24.638367%)" offset="0.90625"/><stop stop-opacity="1" stop-color="rgb(95.144653%, 55.491638%, 24.621582%)" offset="0.9375"/><stop stop-opacity="1" stop-color="rgb(95.114136%, 55.28717%, 24.606323%)" offset="0.96875"/><stop stop-opacity="1" stop-color="rgb(95.082092%, 55.081177%, 24.591064%)" offset="1"/></linearGradient></defs><g clip-path="url(#d5d7d5ee13)"><g clip-path="url(#fa8ed511c9)"><path fill="url(#963f30834f)" d="M 59.207031 153.714844 L 59.207031 222.714844 L 128.207031 222.714844 L 128.207031 153.714844 Z M 59.207031 153.714844 " fill-rule="nonzero"/></g></g><g clip-path="url(#05258de722)"><path fill="url(#447d197e2d)" d="M 83.09375 164.328125 L 83.09375 169.636719 L 104.324219 169.636719 L 104.324219 164.328125 Z M 83.09375 164.328125 " fill-rule="nonzero"/></g><g clip-path="url(#fa2330e52c)"><path fill="url(#a14262cfe7)" d="M 83.09375 174.945312 L 83.09375 180.253906 L 93.707031 180.253906 L 93.707031 174.945312 Z M 83.09375 174.945312 " fill-rule="nonzero"/></g><g fill="#401f0f" fill-opacity="1"><g transform="translate(136.405455, 195.999994)"><g><path d="M 28.5625 -20.484375 C 31.09375 -20.484375 33.097656 -19.738281 34.578125 -18.25 C 36.066406 -16.769531 36.8125 -14.539062 36.8125 -11.5625 L 36.8125 0 L 30.96875 0 L 30.96875 -10.65625 C 30.96875 -12.257812 30.632812 -13.453125 29.96875 -14.234375 C 29.300781 -15.023438 28.359375 -15.421875 27.140625 -15.421875 C 25.765625 -15.421875 24.675781 -14.976562 23.875 -14.09375 C 23.070312 -13.207031 22.671875 -11.890625 22.671875 -10.140625 L 22.671875 0 L 16.8125 0 L 16.8125 -10.65625 C 16.8125 -13.832031 15.535156 -15.421875 12.984375 -15.421875 C 11.628906 -15.421875 10.550781 -14.976562 9.75 -14.09375 C 8.957031 -13.207031 8.5625 -11.890625 8.5625 -10.140625 L 8.5625 0 L 2.703125 0 L 2.703125 -20.1875 L 8.296875 -20.1875 L 8.296875 -17.859375 C 9.046875 -18.710938 9.960938 -19.363281 11.046875 -19.8125 C 12.140625 -20.257812 13.335938 -20.484375 14.640625 -20.484375 C 16.066406 -20.484375 17.351562 -20.203125 18.5 -19.640625 C 19.65625 -19.078125 20.582031 -18.257812 21.28125 -17.1875 C 22.101562 -18.238281 23.144531 -19.050781 24.40625 -19.625 C 25.675781 -20.195312 27.0625 -20.484375 28.5625 -20.484375 Z M 28.5625 -20.484375 "/></g></g></g><g fill="#401f0f" fill-opacity="1"><g transform="translate(175.01614, 195.999994)"><g><path d="M 10.84375 -20.484375 C 13.96875 -20.484375 16.367188 -19.738281 18.046875 -18.25 C 19.722656 -16.769531 20.5625 -14.523438 20.5625 -11.515625 L 20.5625 0 L 15.09375 0 L 15.09375 -2.515625 C 13.988281 -0.640625 11.9375 0.296875 8.9375 0.296875 C 7.382812 0.296875 6.035156 0.0351562 4.890625 -0.484375 C 3.753906 -1.015625 2.882812 -1.738281 2.28125 -2.65625 C 1.6875 -3.582031 1.390625 -4.632812 1.390625 -5.8125 C 1.390625 -7.6875 2.09375 -9.160156 3.5 -10.234375 C 4.914062 -11.316406 7.101562 -11.859375 10.0625 -11.859375 L 14.71875 -11.859375 C 14.71875 -13.140625 14.328125 -14.125 13.546875 -14.8125 C 12.773438 -15.5 11.613281 -15.84375 10.0625 -15.84375 C 8.976562 -15.84375 7.914062 -15.671875 6.875 -15.328125 C 5.84375 -14.992188 4.960938 -14.539062 4.234375 -13.96875 L 2.140625 -18.046875 C 3.242188 -18.828125 4.5625 -19.425781 6.09375 -19.84375 C 7.632812 -20.269531 9.21875 -20.484375 10.84375 -20.484375 Z M 10.390625 -3.640625 C 11.390625 -3.640625 12.273438 -3.867188 13.046875 -4.328125 C 13.828125 -4.796875 14.382812 -5.476562 14.71875 -6.375 L 14.71875 -8.4375 L 10.703125 -8.4375 C 8.296875 -8.4375 7.09375 -7.648438 7.09375 -6.078125 C 7.09375 -5.328125 7.382812 -4.734375 7.96875 -4.296875 C 8.5625 -3.859375 9.367188 -3.640625 10.390625 -3.640625 Z M 10.390625 -3.640625 "/></g></g></g><g fill="#401f0f" fill-opacity="1"><g transform="translate(197.417013, 195.999994)"><g><path d="M 2.703125 -20.1875 L 8.5625 -20.1875 L 8.5625 0 L 2.703125 0 Z M 5.625 -23 C 4.550781 -23 3.675781 -23.3125 3 -23.9375 C 2.320312 -24.570312 1.984375 -25.347656 1.984375 -26.265625 C 1.984375 -27.191406 2.320312 -27.96875 3 -28.59375 C 3.675781 -29.21875 4.550781 -29.53125 5.625 -29.53125 C 6.707031 -29.53125 7.582031 -29.226562 8.25 -28.625 C 8.925781 -28.03125 9.265625 -27.285156 9.265625 -26.390625 C 9.265625 -25.410156 8.925781 -24.597656 8.25 -23.953125 C 7.582031 -23.316406 6.707031 -23 5.625 -23 Z M 5.625 -23 "/></g></g></g><g fill="#401f0f" fill-opacity="1"><g transform="translate(207.960718, 195.999994)"><g><path d="M 2.703125 -27.84375 L 8.5625 -27.84375 L 8.5625 0 L 2.703125 0 Z M 2.703125 -27.84375 "/></g></g></g><g fill="#401f0f" fill-opacity="1"><g transform="translate(218.493209, 195.999994)"><g><path d="M 11.21875 -24.3125 C 9.238281 -24.3125 8.25 -23.238281 8.25 -21.09375 L 8.25 -19.890625 L 13.78125 -19.890625 L 13.78125 -16.140625 L 8.40625 -16.140625 L 8.40625 0 L 3.71875 0 L 3.71875 -16.140625 L 0.40625 -16.140625 L 0.40625 -19.890625 L 3.71875 -19.890625 L 3.71875 -21.171875 C 3.71875 -23.316406 4.34375 -25.007812 5.59375 -26.25 C 6.84375 -27.488281 8.609375 -28.109375 10.890625 -28.109375 C 12.691406 -28.109375 14.101562 -27.742188 15.125 -27.015625 L 13.8125 -23.5 C 13.007812 -24.039062 12.144531 -24.3125 11.21875 -24.3125 Z M 11.21875 -24.3125 "/></g></g></g><g fill="#401f0f" fill-opacity="1"><g transform="translate(231.588459, 195.999994)"><g><path d="M 21.921875 -9.90625 C 21.921875 -9.582031 21.894531 -9.117188 21.84375 -8.515625 L 6.125 -8.515625 C 6.394531 -7.046875 7.109375 -5.878906 8.265625 -5.015625 C 9.429688 -4.148438 10.878906 -3.71875 12.609375 -3.71875 C 14.804688 -3.71875 16.617188 -4.441406 18.046875 -5.890625 L 20.5625 -3 C 19.664062 -1.925781 18.53125 -1.113281 17.15625 -0.5625 C 15.78125 -0.0078125 14.226562 0.265625 12.5 0.265625 C 10.289062 0.265625 8.347656 -0.171875 6.671875 -1.046875 C 5.003906 -1.921875 3.710938 -3.140625 2.796875 -4.703125 C 1.878906 -6.273438 1.421875 -8.046875 1.421875 -10.015625 C 1.421875 -11.972656 1.863281 -13.734375 2.75 -15.296875 C 3.644531 -16.859375 4.878906 -18.078125 6.453125 -18.953125 C 8.023438 -19.828125 9.800781 -20.265625 11.78125 -20.265625 C 13.738281 -20.265625 15.484375 -19.832031 17.015625 -18.96875 C 18.554688 -18.101562 19.757812 -16.890625 20.625 -15.328125 C 21.488281 -13.765625 21.921875 -11.957031 21.921875 -9.90625 Z M 11.78125 -16.515625 C 10.28125 -16.515625 9.007812 -16.066406 7.96875 -15.171875 C 6.9375 -14.285156 6.304688 -13.109375 6.078125 -11.640625 L 17.453125 -11.640625 C 17.253906 -13.085938 16.640625 -14.257812 15.609375 -15.15625 C 14.585938 -16.0625 13.3125 -16.515625 11.78125 -16.515625 Z M 11.78125 -16.515625 "/></g></g></g><g fill="#401f0f" fill-opacity="1"><g transform="translate(254.176942, 195.999994)"><g><path d="M 21.921875 -9.90625 C 21.921875 -9.582031 21.894531 -9.117188 21.84375 -8.515625 L 6.125 -8.515625 C 6.394531 -7.046875 7.109375 -5.878906 8.265625 -5.015625 C 9.429688 -4.148438 10.878906 -3.71875 12.609375 -3.71875 C 14.804688 -3.71875 16.617188 -4.441406 18.046875 -5.890625 L 20.5625 -3 C 19.664062 -1.925781 18.53125 -1.113281 17.15625 -0.5625 C 15.78125 -0.0078125 14.226562 0.265625 12.5 0.265625 C 10.289062 0.265625 8.347656 -0.171875 6.671875 -1.046875 C 5.003906 -1.921875 3.710938 -3.140625 2.796875 -4.703125 C 1.878906 -6.273438 1.421875 -8.046875 1.421875 -10.015625 C 1.421875 -11.972656 1.863281 -13.734375 2.75 -15.296875 C 3.644531 -16.859375 4.878906 -18.078125 6.453125 -18.953125 C 8.023438 -19.828125 9.800781 -20.265625 11.78125 -20.265625 C 13.738281 -20.265625 15.484375 -19.832031 17.015625 -18.96875 C 18.554688 -18.101562 19.757812 -16.890625 20.625 -15.328125 C 21.488281 -13.765625 21.921875 -11.957031 21.921875 -9.90625 Z M 11.78125 -16.515625 C 10.28125 -16.515625 9.007812 -16.066406 7.96875 -15.171875 C 6.9375 -14.285156 6.304688 -13.109375 6.078125 -11.640625 L 17.453125 -11.640625 C 17.253906 -13.085938 16.640625 -14.257812 15.609375 -15.15625 C 14.585938 -16.0625 13.3125 -16.515625 11.78125 -16.515625 Z M 11.78125 -16.515625 "/></g></g></g><g fill="#401f0f" fill-opacity="1"><g transform="translate(276.765424, 195.999994)"><g><path d="M 22.703125 -27.84375 L 22.703125 0 L 18.203125 0 L 18.203125 -2.59375 C 17.429688 -1.632812 16.472656 -0.914062 15.328125 -0.4375 C 14.191406 0.03125 12.9375 0.265625 11.5625 0.265625 C 9.632812 0.265625 7.898438 -0.160156 6.359375 -1.015625 C 4.816406 -1.867188 3.609375 -3.078125 2.734375 -4.640625 C 1.859375 -6.203125 1.421875 -7.992188 1.421875 -10.015625 C 1.421875 -12.046875 1.859375 -13.835938 2.734375 -15.390625 C 3.609375 -16.941406 4.816406 -18.140625 6.359375 -18.984375 C 7.898438 -19.835938 9.632812 -20.265625 11.5625 -20.265625 C 12.882812 -20.265625 14.09375 -20.039062 15.1875 -19.59375 C 16.289062 -19.144531 17.234375 -18.46875 18.015625 -17.5625 L 18.015625 -27.84375 Z M 12.125 -3.75 C 13.25 -3.75 14.257812 -4.003906 15.15625 -4.515625 C 16.0625 -5.035156 16.773438 -5.769531 17.296875 -6.71875 C 17.828125 -7.664062 18.09375 -8.765625 18.09375 -10.015625 C 18.09375 -11.265625 17.828125 -12.363281 17.296875 -13.3125 C 16.773438 -14.269531 16.0625 -15.003906 15.15625 -15.515625 C 14.257812 -16.023438 13.25 -16.28125 12.125 -16.28125 C 11 -16.28125 9.984375 -16.023438 9.078125 -15.515625 C 8.179688 -15.003906 7.46875 -14.269531 6.9375 -13.3125 C 6.414062 -12.363281 6.15625 -11.265625 6.15625 -10.015625 C 6.15625 -8.765625 6.414062 -7.664062 6.9375 -6.71875 C 7.46875 -5.769531 8.179688 -5.035156 9.078125 -4.515625 C 9.984375 -4.003906 11 -3.75 12.125 -3.75 Z M 12.125 -3.75 "/></g></g></g><g fill="#401f0f" fill-opacity="1"><g transform="translate(137.179872, 211.362397)"><g><path d="M 3.15625 -5.78125 C 3.65625 -5.78125 4.09375 -5.695312 4.46875 -5.53125 C 4.84375 -5.375 5.128906 -5.140625 5.328125 -4.828125 C 5.523438 -4.515625 5.625 -4.148438 5.625 -3.734375 C 5.625 -3.304688 5.523438 -2.9375 5.328125 -2.625 C 5.128906 -2.320312 4.84375 -2.085938 4.46875 -1.921875 C 4.09375 -1.753906 3.65625 -1.671875 3.15625 -1.671875 L 1.84375 -1.671875 L 1.84375 0 L 0.78125 0 L 0.78125 -5.78125 Z M 3.109375 -2.578125 C 3.578125 -2.578125 3.929688 -2.675781 4.171875 -2.875 C 4.410156 -3.070312 4.53125 -3.359375 4.53125 -3.734375 C 4.53125 -4.097656 4.410156 -4.378906 4.171875 -4.578125 C 3.929688 -4.773438 3.578125 -4.875 3.109375 -4.875 L 1.84375 -4.875 L 1.84375 -2.578125 Z M 3.109375 -2.578125 "/></g></g></g><g fill="#401f0f" fill-opacity="1"><g transform="translate(145.721201, 211.362397)"><g><path d="M 3.265625 -2.046875 L 3.265625 0 L 2.203125 0 L 2.203125 -2.03125 L -0.078125 -5.78125 L 1.078125 -5.78125 L 2.765625 -2.96875 L 4.484375 -5.78125 L 5.53125 -5.78125 Z M 3.265625 -2.046875 "/></g></g></g><g fill="#401f0f" fill-opacity="1"><g transform="translate(153.725593, 211.362397)"><g><path d="M 1.953125 -4.875 L 0.03125 -4.875 L 0.03125 -5.78125 L 4.9375 -5.78125 L 4.9375 -4.875 L 3.03125 -4.875 L 3.03125 0 L 1.953125 0 Z M 1.953125 -4.875 "/></g></g></g><g fill="#401f0f" fill-opacity="1"><g transform="translate(161.242615, 211.362397)"><g><path d="M 5.921875 -5.78125 L 5.921875 0 L 4.84375 0 L 4.84375 -2.484375 L 1.84375 -2.484375 L 1.84375 0 L 0.78125 0 L 0.78125 -5.78125 L 1.84375 -5.78125 L 1.84375 -3.390625 L 4.84375 -3.390625 L 4.84375 -5.78125 Z M 5.921875 -5.78125 "/></g></g></g><g fill="#401f0f" fill-opacity="1"><g transform="translate(170.477816, 211.362397)"><g><path d="M 3.484375 0.078125 C 2.890625 0.078125 2.351562 -0.046875 1.875 -0.296875 C 1.40625 -0.554688 1.035156 -0.910156 0.765625 -1.359375 C 0.492188 -1.816406 0.359375 -2.328125 0.359375 -2.890625 C 0.359375 -3.453125 0.492188 -3.957031 0.765625 -4.40625 C 1.035156 -4.863281 1.40625 -5.222656 1.875 -5.484375 C 2.351562 -5.742188 2.890625 -5.875 3.484375 -5.875 C 4.066406 -5.875 4.59375 -5.742188 5.0625 -5.484375 C 5.539062 -5.222656 5.914062 -4.867188 6.1875 -4.421875 C 6.457031 -3.972656 6.59375 -3.460938 6.59375 -2.890625 C 6.59375 -2.328125 6.457031 -1.816406 6.1875 -1.359375 C 5.914062 -0.910156 5.539062 -0.554688 5.0625 -0.296875 C 4.59375 -0.046875 4.066406 0.078125 3.484375 0.078125 Z M 3.484375 -0.859375 C 3.867188 -0.859375 4.210938 -0.941406 4.515625 -1.109375 C 4.828125 -1.285156 5.070312 -1.53125 5.25 -1.84375 C 5.425781 -2.15625 5.515625 -2.503906 5.515625 -2.890625 C 5.515625 -3.273438 5.425781 -3.625 5.25 -3.9375 C 5.070312 -4.25 4.828125 -4.488281 4.515625 -4.65625 C 4.210938 -4.832031 3.867188 -4.921875 3.484375 -4.921875 C 3.097656 -4.921875 2.75 -4.832031 2.4375 -4.65625 C 2.125 -4.488281 1.878906 -4.25 1.703125 -3.9375 C 1.535156 -3.625 1.453125 -3.273438 1.453125 -2.890625 C 1.453125 -2.503906 1.535156 -2.15625 1.703125 -1.84375 C 1.878906 -1.53125 2.125 -1.285156 2.4375 -1.109375 C 2.75 -0.941406 3.097656 -0.859375 3.484375 -0.859375 Z M 3.484375 -0.859375 "/></g></g></g><g fill="#401f0f" fill-opacity="1"><g transform="translate(179.977354, 211.362397)"><g><path d="M 5.921875 -5.78125 L 5.921875 0 L 5.03125 0 L 1.84375 -3.921875 L 1.84375 0 L 0.78125 0 L 0.78125 -5.78125 L 1.65625 -5.78125 L 4.859375 -1.875 L 4.859375 -5.78125 Z M 5.921875 -5.78125 "/></g></g></g><g fill="#401f0f" fill-opacity="1"><g transform="translate(189.212558, 211.362397)"><g/></g></g><g fill="#401f0f" fill-opacity="1"><g transform="translate(194.036666, 211.362397)"><g><path d="M 3.453125 0.078125 C 2.867188 0.078125 2.34375 -0.046875 1.875 -0.296875 C 1.40625 -0.554688 1.035156 -0.910156 0.765625 -1.359375 C 0.492188 -1.816406 0.359375 -2.328125 0.359375 -2.890625 C 0.359375 -3.460938 0.492188 -3.972656 0.765625 -4.421875 C 1.035156 -4.867188 1.40625 -5.222656 1.875 -5.484375 C 2.351562 -5.742188 2.882812 -5.875 3.46875 -5.875 C 3.9375 -5.875 4.363281 -5.789062 4.75 -5.625 C 5.144531 -5.457031 5.476562 -5.21875 5.75 -4.90625 L 5.0625 -4.25 C 4.644531 -4.695312 4.128906 -4.921875 3.515625 -4.921875 C 3.117188 -4.921875 2.757812 -4.832031 2.4375 -4.65625 C 2.125 -4.488281 1.878906 -4.25 1.703125 -3.9375 C 1.535156 -3.632812 1.453125 -3.285156 1.453125 -2.890625 C 1.453125 -2.503906 1.535156 -2.15625 1.703125 -1.84375 C 1.878906 -1.53125 2.125 -1.285156 2.4375 -1.109375 C 2.757812 -0.941406 3.117188 -0.859375 3.515625 -0.859375 C 4.128906 -0.859375 4.644531 -1.085938 5.0625 -1.546875 L 5.75 -0.890625 C 5.476562 -0.566406 5.144531 -0.320312 4.75 -0.15625 C 4.363281 0 3.929688 0.078125 3.453125 0.078125 Z M 3.453125 0.078125 "/></g></g></g><g fill="#401f0f" fill-opacity="1"><g transform="translate(202.586251, 211.362397)"><g><path d="M 3.484375 0.078125 C 2.890625 0.078125 2.351562 -0.046875 1.875 -0.296875 C 1.40625 -0.554688 1.035156 -0.910156 0.765625 -1.359375 C 0.492188 -1.816406 0.359375 -2.328125 0.359375 -2.890625 C 0.359375 -3.453125 0.492188 -3.957031 0.765625 -4.40625 C 1.035156 -4.863281 1.40625 -5.222656 1.875 -5.484375 C 2.351562 -5.742188 2.890625 -5.875 3.484375 -5.875 C 4.066406 -5.875 4.59375 -5.742188 5.0625 -5.484375 C 5.539062 -5.222656 5.914062 -4.867188 6.1875 -4.421875 C 6.457031 -3.972656 6.59375 -3.460938 6.59375 -2.890625 C 6.59375 -2.328125 6.457031 -1.816406 6.1875 -1.359375 C 5.914062 -0.910156 5.539062 -0.554688 5.0625 -0.296875 C 4.59375 -0.046875 4.066406 0.078125 3.484375 0.078125 Z M 3.484375 -0.859375 C 3.867188 -0.859375 4.210938 -0.941406 4.515625 -1.109375 C 4.828125 -1.285156 5.070312 -1.53125 5.25 -1.84375 C 5.425781 -2.15625 5.515625 -2.503906 5.515625 -2.890625 C 5.515625 -3.273438 5.425781 -3.625 5.25 -3.9375 C 5.070312 -4.25 4.828125 -4.488281 4.515625 -4.65625 C 4.210938 -4.832031 3.867188 -4.921875 3.484375 -4.921875 C 3.097656 -4.921875 2.75 -4.832031 2.4375 -4.65625 C 2.125 -4.488281 1.878906 -4.25 1.703125 -3.9375 C 1.535156 -3.625 1.453125 -3.273438 1.453125 -2.890625 C 1.453125 -2.503906 1.535156 -2.15625 1.703125 -1.84375 C 1.878906 -1.53125 2.125 -1.285156 2.4375 -1.109375 C 2.75 -0.941406 3.097656 -0.859375 3.484375 -0.859375 Z M 3.484375 -0.859375 "/></g></g></g><g fill="#401f0f" fill-opacity="1"><g transform="translate(212.085788, 211.362397)"><g><path d="M 6.09375 0 L 6.078125 -3.828125 L 4.1875 -0.65625 L 3.703125 -0.65625 L 1.796875 -3.78125 L 1.796875 0 L 0.78125 0 L 0.78125 -5.78125 L 1.65625 -5.78125 L 3.953125 -1.953125 L 6.21875 -5.78125 L 7.09375 -5.78125 L 7.109375 0 Z M 6.09375 0 "/></g></g></g><g fill="#401f0f" fill-opacity="1"><g transform="translate(222.518766, 211.362397)"><g><path d="M 6.09375 0 L 6.078125 -3.828125 L 4.1875 -0.65625 L 3.703125 -0.65625 L 1.796875 -3.78125 L 1.796875 0 L 0.78125 0 L 0.78125 -5.78125 L 1.65625 -5.78125 L 3.953125 -1.953125 L 6.21875 -5.78125 L 7.09375 -5.78125 L 7.109375 0 Z M 6.09375 0 "/></g></g></g><g fill="#401f0f" fill-opacity="1"><g transform="translate(232.951749, 211.362397)"><g><path d="M 3.265625 0.078125 C 2.460938 0.078125 1.835938 -0.144531 1.390625 -0.59375 C 0.953125 -1.039062 0.734375 -1.679688 0.734375 -2.515625 L 0.734375 -5.78125 L 1.796875 -5.78125 L 1.796875 -2.5625 C 1.796875 -1.425781 2.285156 -0.859375 3.265625 -0.859375 C 4.242188 -0.859375 4.734375 -1.425781 4.734375 -2.5625 L 4.734375 -5.78125 L 5.796875 -5.78125 L 5.796875 -2.515625 C 5.796875 -1.679688 5.570312 -1.039062 5.125 -0.59375 C 4.6875 -0.144531 4.066406 0.078125 3.265625 0.078125 Z M 3.265625 0.078125 "/></g></g></g><g fill="#401f0f" fill-opacity="1"><g transform="translate(242.013482, 211.362397)"><g><path d="M 5.921875 -5.78125 L 5.921875 0 L 5.03125 0 L 1.84375 -3.921875 L 1.84375 0 L 0.78125 0 L 0.78125 -5.78125 L 1.65625 -5.78125 L 4.859375 -1.875 L 4.859375 -5.78125 Z M 5.921875 -5.78125 "/></g></g></g><g fill="#401f0f" fill-opacity="1"><g transform="translate(251.248684, 211.362397)"><g><path d="M 0.78125 -5.78125 L 1.84375 -5.78125 L 1.84375 0 L 0.78125 0 Z M 0.78125 -5.78125 "/></g></g></g><g fill="#401f0f" fill-opacity="1"><g transform="translate(256.427995, 211.362397)"><g><path d="M 3.453125 0.078125 C 2.867188 0.078125 2.34375 -0.046875 1.875 -0.296875 C 1.40625 -0.554688 1.035156 -0.910156 0.765625 -1.359375 C 0.492188 -1.816406 0.359375 -2.328125 0.359375 -2.890625 C 0.359375 -3.460938 0.492188 -3.972656 0.765625 -4.421875 C 1.035156 -4.867188 1.40625 -5.222656 1.875 -5.484375 C 2.351562 -5.742188 2.882812 -5.875 3.46875 -5.875 C 3.9375 -5.875 4.363281 -5.789062 4.75 -5.625 C 5.144531 -5.457031 5.476562 -5.21875 5.75 -4.90625 L 5.0625 -4.25 C 4.644531 -4.695312 4.128906 -4.921875 3.515625 -4.921875 C 3.117188 -4.921875 2.757812 -4.832031 2.4375 -4.65625 C 2.125 -4.488281 1.878906 -4.25 1.703125 -3.9375 C 1.535156 -3.632812 1.453125 -3.285156 1.453125 -2.890625 C 1.453125 -2.503906 1.535156 -2.15625 1.703125 -1.84375 C 1.878906 -1.53125 2.125 -1.285156 2.4375 -1.109375 C 2.757812 -0.941406 3.117188 -0.859375 3.515625 -0.859375 C 4.128906 -0.859375 4.644531 -1.085938 5.0625 -1.546875 L 5.75 -0.890625 C 5.476562 -0.566406 5.144531 -0.320312 4.75 -0.15625 C 4.363281 0 3.929688 0.078125 3.453125 0.078125 Z M 3.453125 0.078125 "/></g></g></g><g fill="#401f0f" fill-opacity="1"><g transform="translate(264.97758, 211.362397)"><g><path d="M 4.53125 -1.34375 L 1.640625 -1.34375 L 1.0625 0 L -0.046875 0 L 2.5625 -5.78125 L 3.625 -5.78125 L 6.234375 0 L 5.109375 0 Z M 4.171875 -2.1875 L 3.078125 -4.71875 L 2 -2.1875 Z M 4.171875 -2.1875 "/></g></g></g><g fill="#401f0f" fill-opacity="1"><g transform="translate(273.708899, 211.362397)"><g><path d="M 1.953125 -4.875 L 0.03125 -4.875 L 0.03125 -5.78125 L 4.9375 -5.78125 L 4.9375 -4.875 L 3.03125 -4.875 L 3.03125 0 L 1.953125 0 Z M 1.953125 -4.875 "/></g></g></g><g fill="#401f0f" fill-opacity="1"><g transform="translate(281.225919, 211.362397)"><g><path d="M 3.484375 0.078125 C 2.890625 0.078125 2.351562 -0.046875 1.875 -0.296875 C 1.40625 -0.554688 1.035156 -0.910156 0.765625 -1.359375 C 0.492188 -1.816406 0.359375 -2.328125 0.359375 -2.890625 C 0.359375 -3.453125 0.492188 -3.957031 0.765625 -4.40625 C 1.035156 -4.863281 1.40625 -5.222656 1.875 -5.484375 C 2.351562 -5.742188 2.890625 -5.875 3.484375 -5.875 C 4.066406 -5.875 4.59375 -5.742188 5.0625 -5.484375 C 5.539062 -5.222656 5.914062 -4.867188 6.1875 -4.421875 C 6.457031 -3.972656 6.59375 -3.460938 6.59375 -2.890625 C 6.59375 -2.328125 6.457031 -1.816406 6.1875 -1.359375 C 5.914062 -0.910156 5.539062 -0.554688 5.0625 -0.296875 C 4.59375 -0.046875 4.066406 0.078125 3.484375 0.078125 Z M 3.484375 -0.859375 C 3.867188 -0.859375 4.210938 -0.941406 4.515625 -1.109375 C 4.828125 -1.285156 5.070312 -1.53125 5.25 -1.84375 C 5.425781 -2.15625 5.515625 -2.503906 5.515625 -2.890625 C 5.515625 -3.273438 5.425781 -3.625 5.25 -3.9375 C 5.070312 -4.25 4.828125 -4.488281 4.515625 -4.65625 C 4.210938 -4.832031 3.867188 -4.921875 3.484375 -4.921875 C 3.097656 -4.921875 2.75 -4.832031 2.4375 -4.65625 C 2.125 -4.488281 1.878906 -4.25 1.703125 -3.9375 C 1.535156 -3.625 1.453125 -3.273438 1.453125 -2.890625 C 1.453125 -2.503906 1.535156 -2.15625 1.703125 -1.84375 C 1.878906 -1.53125 2.125 -1.285156 2.4375 -1.109375 C 2.75 -0.941406 3.097656 -0.859375 3.484375 -0.859375 Z M 3.484375 -0.859375 "/></g></g></g><g fill="#401f0f" fill-opacity="1"><g transform="translate(290.725456, 211.362397)"><g><path d="M 4.5625 0 L 3.375 -1.6875 C 3.332031 -1.6875 3.257812 -1.6875 3.15625 -1.6875 L 1.84375 -1.6875 L 1.84375 0 L 0.78125 0 L 0.78125 -5.78125 L 3.15625 -5.78125 C 3.65625 -5.78125 4.09375 -5.695312 4.46875 -5.53125 C 4.84375 -5.375 5.128906 -5.140625 5.328125 -4.828125 C 5.523438 -4.515625 5.625 -4.148438 5.625 -3.734375 C 5.625 -3.296875 5.515625 -2.914062 5.296875 -2.59375 C 5.085938 -2.28125 4.785156 -2.050781 4.390625 -1.90625 L 5.71875 0 Z M 4.53125 -3.734375 C 4.53125 -4.097656 4.410156 -4.378906 4.171875 -4.578125 C 3.929688 -4.773438 3.578125 -4.875 3.109375 -4.875 L 1.84375 -4.875 L 1.84375 -2.578125 L 3.109375 -2.578125 C 3.578125 -2.578125 3.929688 -2.675781 4.171875 -2.875 C 4.410156 -3.070312 4.53125 -3.359375 4.53125 -3.734375 Z M 4.53125 -3.734375 "/></g></g></g></svg>